<svg width="345" height="129" viewBox="0 0 345 129" fill="none" xmlns="http://www.w3.org/2000/svg">
<g clip-path="url(#clip0_2021_4251)">
<rect x="2" y="2" width="341" height="125" rx="24" fill="#4AD29C"/>
<rect x="1.24905" width="302.91" height="160.028" transform="matrix(0.866025 -0.5 0.866025 0.5 76.3728 132.654)" fill="#FE825F"/>
<rect x="1.24905" width="302.91" height="160.028" transform="matrix(0.866025 -0.5 0.866025 0.5 76.3728 132.654)" stroke="black" stroke-width="1.44227"/>
<rect x="1.24905" width="105.094" height="147.535" transform="matrix(0.866025 -0.5 0.866025 0.5 202.609 83.3154)" fill="white"/>
<rect x="1.24905" width="105.094" height="147.535" transform="matrix(0.866025 -0.5 0.866025 0.5 202.609 83.3154)" stroke="black" stroke-width="1.44227"/>
<rect x="1.24905" width="105.094" height="147.535" transform="matrix(0.866025 -0.5 0.866025 0.5 202.129 78.9887)" fill="white"/>
<rect x="1.24905" width="105.094" height="147.535" transform="matrix(0.866025 -0.5 0.866025 0.5 202.129 78.9887)" stroke="black" stroke-width="1.44227"/>
<rect x="1.24905" width="105.094" height="147.535" transform="matrix(0.866025 -0.5 0.866025 0.5 202.129 75.6233)" fill="white"/>
<rect x="1.24905" width="105.094" height="147.535" transform="matrix(0.866025 -0.5 0.866025 0.5 202.129 75.6233)" stroke="black" stroke-width="1.44227"/>
<rect x="1.24905" width="105.094" height="147.535" transform="matrix(0.866025 -0.5 0.866025 0.5 201.167 71.8732)" fill="white"/>
<rect x="1.24905" width="105.094" height="147.535" transform="matrix(0.866025 -0.5 0.866025 0.5 201.167 71.8732)" stroke="black" stroke-width="1.44227"/>
<g clip-path="url(#clip1_2021_4251)">
<rect width="106.537" height="148.977" transform="matrix(0.866025 -0.5 0.866025 0.5 201 68.2682)" fill="white"/>
<path d="M264.263 62.5582L266.67 61.1682L279.197 68.4003L276.789 69.7903L264.263 62.5582ZM271.087 64.5126L274.002 62.83L275.975 63.9691L273.06 65.6517L271.087 64.5126ZM255.212 69.7903L265.078 64.0945L266.96 65.1814L257.095 70.8772L255.212 69.7903ZM262.634 68.369C265.041 66.979 268.064 66.7595 269.983 67.8673C271.902 68.9752 271.504 70.71 269.096 72.1C266.67 73.5005 263.666 73.7304 261.747 72.6226C259.828 71.5148 260.208 69.7694 262.634 68.369ZM264.462 69.4246C263.394 70.0412 263.159 70.7623 264.064 71.2848C264.969 71.8074 266.2 71.6611 267.268 71.0445C268.336 70.4278 268.589 69.7172 267.684 69.1946C266.779 68.6721 265.53 68.8079 264.462 69.4246ZM257.167 66.6132L259.575 65.2232L262.272 66.7804L259.864 68.1704L257.167 66.6132ZM270.399 75.7997L281.804 69.2155L283.722 70.3233L272.318 76.9075L270.399 75.7997ZM267.449 74.0962L269.856 72.7062L273.64 74.8904L271.232 76.2804L267.449 74.0962ZM272.498 58.5981L283.124 52.4633L285.042 53.5712L274.417 59.7059L272.498 58.5981ZM276.444 63.0084L291.613 54.2505L293.532 55.3583L278.363 64.1162L276.444 63.0084ZM284.155 60.124L286.563 58.734L290.075 60.7615L287.667 62.1515L284.155 60.124ZM281.675 53.2994L284.047 51.9303L285.386 52.7037C286.834 53.5398 288.518 54.5118 290.201 56.0899L287.595 57.3231C285.966 55.7763 284.427 54.888 283.015 54.0728L281.675 53.2994ZM282.237 64.597L294.129 57.7307L300.121 61.19L297.714 62.5799L293.623 60.218L284.137 65.6944L282.237 64.597ZM292.155 47.7717C294.653 46.3294 298.798 46.6116 302.455 48.7227C306.147 50.8547 306.636 53.248 304.138 54.6902C301.622 56.1429 297.495 55.8503 293.802 53.7183C290.146 51.6072 289.639 49.2243 292.155 47.7717ZM294.345 49.0362C293.132 49.7364 293.639 50.9697 296.101 52.391C298.599 53.8333 300.753 54.1363 301.966 53.4361C303.197 52.7254 302.654 51.4922 300.156 50.05C297.694 48.6286 295.576 48.3256 294.345 49.0362ZM298.056 43.006L300.445 41.6264L317.262 51.3355L314.873 52.715L298.056 43.006ZM300.645 48.4928L305.116 45.9114L307.053 47.0296L302.581 49.611L300.645 48.4928Z" fill="black"/>
<rect x="0.832697" width="7.21137" height="7.21137" rx="3.60569" transform="matrix(0.866025 -0.5 0.866025 0.5 210.246 68.0592)" fill="#F9C705"/>
<rect x="0.832697" width="7.21137" height="7.21137" rx="3.60569" transform="matrix(0.866025 -0.5 0.866025 0.5 210.246 68.0592)" stroke="black" stroke-width="0.961516"/>
</g>
<rect x="1.24905" width="105.094" height="147.535" transform="matrix(0.866025 -0.5 0.866025 0.5 201.167 68.8927)" stroke="black" stroke-width="1.44227"/>
</g>
<rect x="1" y="1" width="343" height="127" rx="25" stroke="black" stroke-width="2"/>
<defs>
<clipPath id="clip0_2021_4251">
<rect x="2" y="2" width="341" height="125" rx="24" fill="white"/>
</clipPath>
<clipPath id="clip1_2021_4251">
<rect width="106.537" height="148.977" transform="matrix(0.866025 -0.5 0.866025 0.5 201 68.2682)" fill="white"/>
</clipPath>
</defs>
</svg>
