<svg width="84" height="28" viewBox="0 0 84 28" fill="none" xmlns="http://www.w3.org/2000/svg">
<path d="M8.23566 27.494C3.40966 27.494 0.0276641 23.466 0.0276641 17.766C0.0276641 12.028 3.37166 8 8.19766 8C10.4397 8 12.2637 8.76 13.6317 10.128V0.399998H21.6497V27H14.1257V24.872C12.7577 26.582 10.7817 27.494 8.23566 27.494ZM7.43766 17.766C7.43766 19.666 8.69166 21.072 10.4777 21.072C12.2637 21.072 13.5557 19.666 13.5557 17.766C13.5557 15.828 12.2637 14.46 10.4777 14.46C8.69166 14.46 7.43766 15.828 7.43766 17.766ZM33.9652 27.532C27.9232 27.532 23.6292 23.504 23.6292 17.766C23.6292 12.028 27.9232 8 33.9652 8C40.0072 8 44.3012 12.028 44.3012 17.766C44.3012 23.504 40.0072 27.532 33.9652 27.532ZM30.9252 17.766C30.9252 19.628 32.1792 20.92 33.9652 20.92C35.7512 20.92 37.0052 19.628 37.0052 17.766C37.0052 15.904 35.7512 14.612 33.9652 14.612C32.1792 14.612 30.9252 15.904 30.9252 17.766ZM54.4591 27.494C50.1271 27.494 47.8851 25.1 47.8851 20.768V14.726H45.4531V8.532H47.8851V2.756H55.8651V8.532H58.4111V14.726H55.8651V19.438C55.8651 20.312 56.2451 20.768 57.0431 20.768C57.3851 20.768 57.7271 20.73 58.0691 20.502V26.848C57.0431 27.266 55.8271 27.494 54.4591 27.494ZM69.3771 27.494C65.0451 27.494 62.8031 25.1 62.8031 20.768V14.726H60.3711V8.532H62.8031V2.756H70.7831V8.532H73.3291V14.726H70.7831V19.438C70.7831 20.312 71.1631 20.768 71.9611 20.768C72.3031 20.768 72.6451 20.73 72.9871 20.502V26.848C71.9611 27.266 70.7451 27.494 69.3771 27.494ZM79.4019 27.532C76.9699 27.532 75.1839 25.822 75.1839 23.504C75.1839 21.148 76.9699 19.514 79.4019 19.514C81.7959 19.514 83.5439 21.148 83.5439 23.504C83.5439 25.822 81.7959 27.532 79.4019 27.532Z" fill="#F9C705"/>
</svg>
